<?xml version="1.0" encoding="UTF-8" standalone="yes"?>
<svg version="1.2" width="100px" height="100px" baseProfile="tiny-ps" viewBox="0 0 100px 100px" fill-rule="evenodd" xmlns="http://www.w3.org/2000/svg">
  <title>bimi-svg-tiny-12-ps</title>
  <g>
    <path fill="#fcfdfd" d="M -0.5,-0.5 C 32.8333,-0.5 66.1667,-0.5 99.5,-0.5C 99.5,32.8333 99.5,66.1667 99.5,99.5C 66.1667,99.5 32.8333,99.5 -0.5,99.5C -0.5,66.1667 -0.5,32.8333 -0.5,-0.5 Z"/>
  </g>
  <g>
    <path fill="#fcfcfc" d="M 79.5,33.5 C 79.5,47.1667 79.5,60.8333 79.5,74.5C 59.8333,74.5 40.1667,74.5 20.5,74.5C 20.5,62.5 20.5,50.5 20.5,38.5C 20.2148,36.712 20.5481,35.0453 21.5,33.5C 26.3926,35.9607 31.3926,37.794 36.5,39C 40.0479,33.4064 43.2146,27.573 46,21.5C 48.6667,17.5 51.3333,17.5 54,21.5C 56.7854,27.573 59.9521,33.4064 63.5,39C 68.7841,37.2933 74.1174,35.46 79.5,33.5 Z"/>
  </g>
  <g>
    <path fill="#5e7393" d="M 81.5,32.5 C 80.5084,32.3284 79.8417,32.6618 79.5,33.5C 74.1174,35.46 68.7841,37.2933 63.5,39C 59.9521,33.4064 56.7854,27.573 54,21.5C 51.3333,17.5 48.6667,17.5 46,21.5C 43.2146,27.573 40.0479,33.4064 36.5,39C 31.3926,37.794 26.3926,35.9607 21.5,33.5C 20.5481,35.0453 20.2148,36.712 20.5,38.5C 19.2329,35.9387 19.2329,33.272 20.5,30.5C 25.3715,32.9471 30.3715,34.7804 35.5,36C 39.0479,30.4064 42.2146,24.573 45,18.5C 44.6315,15.2103 44.6315,11.877 45,8.5C 48.7404,5.5867 52.0737,5.92004 55,9.5C 55.3201,12.5399 55.3201,15.5399 55,18.5C 58.1667,24.3333 61.3333,30.1667 64.5,36C 69.8361,34.1763 75.1694,32.0097 80.5,29.5C 81.3857,30.325 81.719,31.325 81.5,32.5 Z"/>
  </g>
  <g>
    <path fill="#f1f2f3" d="M 48.5,8.5 C 53.4928,8.99704 54.4928,11.1637 51.5,15C 46.4003,14.8873 45.4003,12.7206 48.5,8.5 Z"/>
  </g>
  <g>
    <path fill="#5f708c" d="M 20.5,30.5 C 19.2329,33.272 19.2329,35.9387 20.5,38.5C 20.5,50.5 20.5,62.5 20.5,74.5C 40.1667,74.5 59.8333,74.5 79.5,74.5C 79.5,60.8333 79.5,47.1667 79.5,33.5C 79.8417,32.6618 80.5084,32.3284 81.5,32.5C 81.3334,46.504 81.5001,60.504 82,74.5C 84.967,76.4806 85.1336,78.4806 82.5,80.5C 82.5,79.8333 82.1667,79.5 81.5,79.5C 60.8599,77.5113 39.8599,76.8447 18.5,77.5C 38.6625,76.6681 58.9959,76.1681 79.5,76C 59.1694,75.5 38.8361,75.3334 18.5,75.5C 17.8497,60.1294 18.5163,45.1294 20.5,30.5 Z"/>
  </g>
  <g>
    <path fill="#465c78" d="M 46.5,59.5 C 54.9608,58.4669 59.1275,62.1336 59,70.5C 53.2496,71.6406 47.4163,71.8072 41.5,71C 40.5309,66.0978 42.1975,62.2644 46.5,59.5 Z"/>
  </g>
  <g>
    <path fill="#697d99" d="M 74.5,48.5 C 75.5,48.5 76.5,48.5 77.5,48.5C 77.5,51.8333 77.5,55.1667 77.5,58.5C 76.5,58.5 75.5,58.5 74.5,58.5C 74.5,55.1667 74.5,51.8333 74.5,48.5 Z"/>
  </g>
  <g>
    <path fill="#5d7592" d="M 36.5,50.5 C 40.35,50.7007 41.35,52.5341 39.5,56C 35.5369,56.1177 34.5369,54.2843 36.5,50.5 Z"/>
  </g>
  <g>
    <path fill="#5f7592" d="M 60.5,49.5 C 64.2635,50.385 65.2635,52.5516 63.5,56C 62.2161,56.6838 61.0495,56.5171 60,55.5C 59.5099,53.4546 59.6765,51.4546 60.5,49.5 Z"/>
  </g>
  <g>
    <path fill="#6c809d" d="M 73.5,37.5 C 74.8333,37.5 76.1667,37.5 77.5,37.5C 77.5,39.8333 77.5,42.1667 77.5,44.5C 76.5,44.5 75.5,44.5 74.5,44.5C 74.5,43.1667 74.5,41.8333 74.5,40.5C 70.9952,40.3059 70.6618,39.3059 73.5,37.5 Z"/>
  </g>
  <g>
    <path fill="#e3e7ea" d="M 18.5,77.5 C 39.8599,76.8447 60.8599,77.5113 81.5,79.5C 60.1401,80.1553 39.1401,79.4887 18.5,77.5 Z"/>
  </g>
  <g>
    <path fill="#47608b" d="M 18.5,75.5 C 38.8361,75.3334 59.1694,75.5 79.5,76C 58.9959,76.1681 38.6625,76.6681 18.5,77.5C 39.1401,79.4887 60.1401,80.1553 81.5,79.5C 82.1667,79.5 82.5,79.8333 82.5,80.5C 61.0039,81.6628 39.3372,81.8295 17.5,81C 14.6378,78.4425 14.9711,76.6092 18.5,75.5 Z"/>
  </g>
</svg>